<?xml version="1.0" encoding="UTF-8"?><svg id="Layer_1" xmlns="http://www.w3.org/2000/svg" width="400" height="350" viewBox="0 0 400 350"><defs><style>.cls-1{stroke:#0086bf;}.cls-1,.cls-2{stroke-width:2px;}.cls-1,.cls-2,.cls-3{fill:#fff;stroke-miterlimit:10;}.cls-2{stroke:#2f2091;}.cls-3{stroke:#000;}.cls-4{fill:#2f3c91;}.cls-4,.cls-5,.cls-6{stroke-width:0px;}.cls-5{fill:#3d74de;}.cls-6{fill:#71bfdf;}</style></defs><rect class="cls-5" x=".45" y=".22" width="400" height="350"/><path class="cls-3" d="M136.76,172.62l-3.98,12.06h-5.12l13.03-38.35h5.97l13.09,38.35h-5.29l-4.1-12.06h-13.6ZM149.34,168.76l-3.76-11.04c-.85-2.5-1.42-4.78-1.99-7h-.12c-.57,2.28-1.19,4.61-1.93,6.94l-3.76,11.1h11.55Z"/><path class="cls-3" d="M164.81,184.69c.12-1.88.23-4.67.23-7.11v-33.29h4.95v17.3h.12c1.76-3.07,4.95-5.06,9.39-5.06,6.83,0,11.66,5.69,11.61,14.05,0,9.84-6.2,14.74-12.35,14.74-3.98,0-7.17-1.54-9.22-5.18h-.17l-.23,4.55h-4.33ZM169.99,173.65c0,.63.12,1.25.23,1.82.97,3.47,3.87,5.86,7.51,5.86,5.23,0,8.36-4.27,8.36-10.58,0-5.52-2.85-10.24-8.19-10.24-3.41,0-6.6,2.33-7.62,6.15-.11.57-.29,1.25-.29,2.05v4.95Z"/><path class="cls-3" d="M222.33,170.69c0,10.18-7.05,14.62-13.71,14.62-7.45,0-13.2-5.46-13.2-14.17,0-9.22,6.03-14.62,13.66-14.62s13.26,5.75,13.26,14.17ZM200.48,170.97c0,6.03,3.47,10.58,8.37,10.58s8.36-4.5,8.36-10.7c0-4.67-2.33-10.58-8.25-10.58s-8.48,5.46-8.48,10.7Z"/><path class="cls-3" d="M251.69,177.18c0,2.84.06,5.35.23,7.51h-4.44l-.28-4.5h-.12c-1.31,2.22-4.21,5.12-9.1,5.12-4.32,0-9.5-2.39-9.5-12.06v-16.1h5.01v15.25c0,5.23,1.59,8.76,6.14,8.76,3.36,0,5.69-2.33,6.6-4.55.29-.74.46-1.65.46-2.56v-16.9h5.01v20.03Z"/><path class="cls-3" d="M266.02,149.24v7.91h7.17v3.81h-7.17v14.85c0,3.41.97,5.35,3.75,5.35,1.31,0,2.28-.17,2.9-.34l.23,3.75c-.97.4-2.5.68-4.44.68-2.33,0-4.21-.74-5.4-2.11-1.42-1.48-1.94-3.93-1.94-7.17v-15.02h-4.27v-3.81h4.27v-6.6l4.89-1.31Z"/><circle class="cls-6" cx="69.95" cy="61.72" r="42.5"/><rect class="cls-1" x="64.47" y="49.22" width="9.45" height="32.47" rx="4.73" ry="4.73"/><circle class="cls-1" cx="69.2" cy="37.54" r="5.44"/><circle class="cls-4" cx="351.17" cy="295.5" r="30.28"/><rect class="cls-2" x="347.26" y="288.13" width="6.74" height="23.39" rx="3.37" ry="3.37"/><circle class="cls-2" cx="350.63" cy="280.41" r="3.88"/></svg>