<?xml version="1.0" encoding="UTF-8"?><svg id="Layer_1" xmlns="http://www.w3.org/2000/svg" width="200" height="190" viewBox="0 0 200 190"><defs><style>.cls-1{fill:#faf9f6;stroke:#000;stroke-miterlimit:10;}.cls-2{fill:#6eb551;}.cls-2,.cls-3,.cls-4{stroke-width:0px;}.cls-3{fill:#8cab3f;}.cls-4{fill:#8cc63f;}</style></defs><ellipse class="cls-1" cx="100" cy="90" rx="90" ry="85"/><path class="cls-4" d="M26,34.95c3.14-4.51,31.29.65,34.85,12.06,1.52,4.85-.8,7.19,2.92,11.53,2.3,2.67,3.16,3.83,7.64,7.05,1.26.91,8.43,6.07,8.32,12.53-.06,3.53.22,2.81-.86,8.44-.61,3.2-.7,6.63,1.48,9.18,2.51,2.94,1.94,2.74,6.51,5.57,4.29,2.67,7.85,7.46,8.3,12.31.47,5.15-1.46,5.82-.84,11.97.2,1.93.34,2.8,2.96,5.56,2.71,2.86,3.67,4.84,8.23,8.12,2.26,1.63,5.21,3.75,6.11,6.92.68,2.39-.12,4.23-4.16,11.5-6.58,11.86-7.84,15.6-8.07,16.59-.57,2.46-6.85-9.22-16.6-11.6-5.27-1.29-5.97-1.87-10.65-3.56-1.26-.46-6.77-2.88-8.51-8.55-1.17-3.82-.86-3.27-.07-10.59.51-4.66.95-8.72-1.68-11.82-3.42-4.03-8.11-4.94-12.34-8.98-3.47-3.31-3.66-4.88-3.88-10.81-.24-6.35.04-3.72-.92-8.55-.52-2.64-.61-4.6-4.03-9.47-2.13-3.04-3.05-3.35-6.06-6.26-4.26-4.12-8.42-10.59-8.09-16.08.57-9.44,6.02-10.87,5.85-19.11-.17-8.09-8.19-11.39-6.4-13.97Z"/><path class="cls-3" d="M95.36,7.25c4.75-3.27,29.04,10.17,27.79,21.95-.53,5-3.64,6.49-1.89,11.69,1.08,3.21,1.42,4.55,4.32,8.94.81,1.23,5.46,8.27,2.75,14.28-1.48,3.29-.92,2.7-4.2,7.64-1.86,2.81-3.32,5.99-2.31,9.05,1.17,3.52.72,3.16,3.86,7.21,2.94,3.81,4.36,9.39,2.82,14.07-1.63,4.97-3.71,5-5.6,10.95-.59,1.86-.8,2.72.54,6.12,1.39,3.51,1.49,5.65,4.44,10.12,1.46,2.22,3.37,5.1,2.94,8.35-.32,2.44-1.82,3.92-8.52,9.5-10.93,9.09-13.61,12.21-14.23,13.07-1.52,2.13-2.71-10.73-10.88-15.94-4.42-2.82-4.85-3.57-8.55-6.59-1-.82-5.19-4.77-4.54-10.61.44-3.94.51-3.33,4.19-9.94,2.35-4.21,4.39-7.87,3.18-11.58-1.58-4.82-5.61-7.11-7.95-12.18-1.92-4.17-1.46-5.69.71-11.31,2.33-6.02,1.53-3.47,2.58-8.29.57-2.63,1.28-4.49.03-10.1-.77-3.5-1.51-4.07-3.15-7.72-2.33-5.16-3.62-12.49-1.11-17.53,4.32-8.67,10.01-8.34,13.16-16.11,3.1-7.63-3.09-13.18-.38-15.04Z"/><path class="cls-2" d="M177.27,37c-2.98-4.6-31.3-.21-35.27,11.1-1.69,4.81.54,7.21-3.34,11.44-2.39,2.61-3.29,3.74-7.89,6.84-1.29.87-8.65,5.84-8.76,12.3-.06,3.53-.32,2.81.56,8.46.5,3.21.47,6.64-1.8,9.14-2.61,2.87-2.04,2.68-6.71,5.39-4.38,2.55-8.12,7.24-8.74,12.08-.66,5.13,1.25,5.85.41,11.99-.26,1.92-.44,2.79-3.16,5.48-2.81,2.78-3.84,4.73-8.51,7.89-2.32,1.57-5.34,3.61-6.35,6.75-.76,2.37-.03,4.23,3.75,11.61,6.16,12.03,7.28,15.8,7.47,16.8.48,2.48,7.18-9.03,17-11.14,5.32-1.14,6.04-1.7,10.78-3.27,1.28-.42,6.87-2.69,8.81-8.31,1.31-3.79.98-3.25.45-10.58-.34-4.67-.63-8.74,2.1-11.77,3.56-3.94,8.28-4.72,12.66-8.64,3.59-3.22,3.83-4.78,4.27-10.7.47-6.34.1-3.71,1.23-8.52.62-2.62.78-4.58,4.37-9.36,2.24-2.98,3.16-3.27,6.28-6.09,4.41-4,8.79-10.35,8.66-15.85-.23-9.45-5.63-11.03-5.16-19.26.46-8.08,8.6-11.16,6.9-13.79Z"/></svg>