<?xml version="1.0" encoding="UTF-8"?><svg id="Layer_1" xmlns="http://www.w3.org/2000/svg" width="200" height="200" viewBox="0 0 200 200"><defs><style>.cls-1{fill:#faf9f6;stroke:#000;stroke-miterlimit:10;}.cls-2{fill:#51995e;stroke-width:0px;}</style></defs><circle class="cls-1" cx="105.01" cy="102.03" r="86.07"/><path class="cls-2" d="M6.03,56.9c6.35,1.51,37.58,8.44,54.19,35.98,10.04,16.65,3.41,23.81,15.83,49.21,11.9,24.34,51.2,44.49,29.09,34.95-4.11-1.77-26.45-5.95-42.01-25.72-12.02-15.28-3.45-25.58-14.27-47.21C32,70.43-15.46,51.77,6.03,56.9Z"/><path class="cls-2" d="M86.96,30.84c3.81,2.29,27.95,12.94,27.97,36.12,0,2.64.58,5.83-7.55,24.66-14.48,33.55-10.43,35.89-10.6,43.21-.6,25.79,17.19,42.78,14.94,44.3-2.19,1.48-17.12-15.04-28.56-37.15-11.65-22.5-.96-33.56,8.19-51.16,6.59-12.68,12.19-20.97,4.88-35.6-8.88-17.77-11.7-25.84-9.27-24.38Z"/><path class="cls-2" d="M158.44,20.63c3.42-.14,23.2,32.1,14.84,56.04-5.48,15.68-27.05,21.64-33.82,26.79-3.24,2.47-8.42,5.61-16.02,13.49-21.32,22.09-8.93,61.8-11.61,62.14-2.2.28-16.75-26.92-8.77-54.14,4.05-13.82,13.49-23.94,23.41-30.72,13.73-9.39,23.08-9.76,29.26-19.51,15.11-23.83-.57-53.95,2.72-54.09Z"/><path class="cls-2" d="M181.57,99.59c-8.2,9.93-16.09,12.19-25.84,13.65-11.4,1.71-13.92,1.61-20.97,6.83-5.02,3.72-7.41,8.33-13.17,23.89-4.88,13.21-12.67,34.29-10.73,35.11,1.84.77,12.12-13.54,24.87-32.67,3.9-5.85,3.41-14.63,19.51-16.58,14.58-1.77,22.57-6.97,25.36-9.27,20.85-17.11,21.3-52.9,17.56-54.13-1.99-.65-3.71,17.57-16.58,33.16Z"/></svg>