<?xml version="1.0" encoding="UTF-8"?><svg id="Layer_1" xmlns="http://www.w3.org/2000/svg" width="200" height="200" viewBox="0 0 200 200"><defs><style>.cls-1{stroke:#ffe3aa;}.cls-1,.cls-2{fill:#fff6d1;}.cls-1,.cls-2,.cls-3{stroke-miterlimit:10;}.cls-2{stroke:#fff6d1;}.cls-3{fill:#faf9f6;stroke:#000;}.cls-4{fill:#ffea9f;stroke-width:0px;}</style></defs><circle class="cls-3" cx="100.35" cy="99.65" r="96.35"/><path class="cls-2" d="M69.43,65.9c-.08.02-.15.04-.23.06,0-.05.01-.11.02-.16.07.03.14.06.21.1Z"/><path class="cls-1" d="M110.91,60.96c-.78-3.96-7.73-5.71-15.46-7.66-4.05-1.02-7.81-1.47-11.43-1.34.17-.41.35-.84.53-1.3,1.42-3.57,3.06-7.7,3.46-13.74.32-4.88.98-15.02-3.47-17.04-3.68-1.66-9.14,2.99-15.21,8.15-4.48,3.81-7.69,7.79-9.91,12.35-.16.34-.32.66-.47.97-.19-.32-.39-.65-.6-.99-2.62-4.34-6.18-8.01-10.98-11.41-6.51-4.6-12.37-8.74-15.88-6.75-4.26,2.41-2.68,12.45-1.93,17.28.94,5.98,2.95,9.94,4.68,13.37,1.62,3.2,2.96,5.25,4.36,6.72-1.04.61-2.18,1.38-3.48,2.32-3.11,2.26-6.71,4.87-10.26,9.76-2.88,3.95-8.86,12.17-6.17,16.26,2.22,3.37,9.32,2.36,17.21,1.25,5.82-.82,10.66-2.47,14.97-5.14,1.17-.72,2.16-1.34,3.01-1.98.08,1.05.28,2.18.51,3.52.87,4.99,2.85,9.71,6.1,14.61,4.4,6.64,8.36,12.62,12.36,12.04,4.84-.7,7.01-10.63,8.06-15.41,1.29-5.91.86-10.33.48-14.16-.1-1.06-.22-2.01-.36-2.88,1.36-.16,2.94-.47,4.82-.93,3.73-.91,8.05-1.97,13.19-5.16,4.16-2.57,12.81-7.91,11.86-12.71ZM69.2,64.54c0-.05.01-.11.02-.16.07.03.14.06.21.1-.08.02-.15.04-.23.06Z"/><path class="cls-2" d="M69.43,65.9c-.08.02-.15.04-.23.06,0-.05.01-.11.02-.16.07.03.14.06.21.1Z"/><path class="cls-2" d="M69.43,65.9c-.08.02-.15.04-.23.06,0-.05.01-.11.02-.16.07.03.14.06.21.1Z"/><circle class="cls-4" cx="64.7" cy="61.67" r="4.8"/><path class="cls-2" d="M149.25,80.88c-.08.02-.15.04-.23.06,0-.05.01-.11.02-.16.07.03.14.06.21.1Z"/><path class="cls-1" d="M190.73,75.93c-.78-3.96-7.73-5.71-15.46-7.66-4.05-1.02-7.81-1.47-11.43-1.34.17-.41.35-.84.53-1.3,1.42-3.57,3.06-7.7,3.46-13.74.32-4.88.98-15.02-3.47-17.04-3.68-1.66-9.14,2.99-15.21,8.15-4.48,3.81-7.69,7.79-9.91,12.35-.16.34-.32.66-.47.97-.19-.32-.39-.65-.6-.99-2.62-4.34-6.18-8.01-10.98-11.41-6.51-4.6-12.37-8.74-15.88-6.75-4.26,2.41-2.68,12.45-1.93,17.28.94,5.98,2.95,9.94,4.68,13.37,1.62,3.2,2.96,5.25,4.36,6.72-1.04.61-2.18,1.38-3.48,2.32-3.11,2.26-6.71,4.87-10.26,9.76-2.88,3.95-8.86,12.17-6.17,16.26,2.22,3.37,9.32,2.36,17.21,1.25,5.82-.82,10.66-2.47,14.97-5.14,1.17-.72,2.16-1.34,3.01-1.98.08,1.05.28,2.18.51,3.52.87,4.99,2.85,9.71,6.1,14.61,4.4,6.64,8.36,12.62,12.36,12.04,4.84-.7,7.01-10.63,8.06-15.41,1.29-5.91.86-10.33.48-14.16-.1-1.06-.22-2.01-.36-2.88,1.36-.16,2.94-.47,4.82-.93,3.73-.91,8.05-1.97,13.19-5.16,4.16-2.57,12.81-7.91,11.86-12.71ZM149.02,79.51c0-.05.01-.11.02-.16.07.03.14.06.21.1-.08.02-.15.04-.23.06Z"/><path class="cls-2" d="M149.25,80.88c-.08.02-.15.04-.23.06,0-.05.01-.11.02-.16.07.03.14.06.21.1Z"/><path class="cls-2" d="M149.25,80.88c-.08.02-.15.04-.23.06,0-.05.01-.11.02-.16.07.03.14.06.21.1Z"/><circle class="cls-4" cx="144.52" cy="76.65" r="4.8"/><path class="cls-2" d="M74.3,134.32c-.08.02-.15.04-.23.06,0-.05.01-.11.02-.16.07.03.14.06.21.1Z"/><path class="cls-2" d="M74.3,134.32c-.08.02-.15.04-.23.06,0-.05.01-.11.02-.16.07.03.14.06.21.1Z"/><path class="cls-2" d="M74.3,134.32c-.08.02-.15.04-.23.06,0-.05.01-.11.02-.16.07.03.14.06.21.1Z"/><path class="cls-1" d="M115.77,129.37c-.78-3.96-7.73-5.71-15.46-7.66-4.05-1.02-7.81-1.47-11.43-1.34.17-.41.35-.84.53-1.3,1.42-3.57,3.06-7.7,3.46-13.74.32-4.88.98-15.02-3.47-17.04-3.68-1.66-9.14,2.99-15.21,8.15-4.48,3.81-7.69,7.79-9.91,12.35-.16.34-.32.66-.47.97-.19-.32-.39-.65-.6-.99-2.62-4.34-6.18-8.01-10.98-11.41-6.51-4.6-12.37-8.74-15.88-6.75-4.26,2.41-2.68,12.45-1.93,17.28.94,5.98,2.95,9.94,4.68,13.37,1.62,3.2,2.96,5.25,4.36,6.72-1.04.61-2.18,1.38-3.48,2.32-3.11,2.26-6.71,4.87-10.26,9.76-2.88,3.95-8.86,12.17-6.17,16.26,2.22,3.37,9.32,2.36,17.21,1.25,5.82-.82,10.66-2.47,14.97-5.14,1.17-.72,2.16-1.34,3.01-1.98.08,1.05.28,2.18.51,3.52.87,4.99,2.85,9.71,6.1,14.61,4.4,6.64,8.36,12.62,12.36,12.04,4.84-.7,7.01-10.63,8.06-15.41,1.29-5.91.86-10.33.48-14.16-.1-1.06-.22-2.01-.36-2.88,1.36-.16,2.94-.47,4.82-.93,3.73-.91,8.05-1.97,13.19-5.16,4.16-2.57,12.81-7.91,11.86-12.71ZM74.07,132.96c0-.05.01-.11.02-.16.07.03.14.06.21.1-.08.02-.15.04-.23.06Z"/><circle class="cls-4" cx="69.56" cy="130.09" r="4.8"/></svg>