<?xml version="1.0" encoding="UTF-8"?><svg id="Layer_1" xmlns="http://www.w3.org/2000/svg" width="200" height="190" viewBox="0 0 200 190"><defs><style>.cls-1{fill:#faf9f6;stroke:#000;stroke-miterlimit:10;}.cls-2{fill:#298145;}.cls-2,.cls-3,.cls-4,.cls-5{stroke-width:0px;}.cls-3{fill:#a67c52;}.cls-4{fill:#009245;}.cls-5{fill:#007e45;}</style></defs><ellipse class="cls-1" cx="100" cy="89.5" rx="90" ry="85"/><path class="cls-5" d="M142.35,64.7c-2.76,4.73-7.71,7.52-12.28,7.35.36,3.98-2.1,8.45-6.69,11.33-5.29,3.33-11.73,3.49-15.68.72-1.08,1.05-2.37,2-3.85,2.78-4.62,2.44-9.85,2.65-13.6.9-1.79,1.47-4.1,2.63-6.74,3.27-6.51,1.58-12.92-.51-15.39-4.73-4.5,2.26-11.32.88-16.4-3.65-.92-.82-1.74-1.7-2.44-2.62-5.25,1.68-11.74-1.3-14.97-7.08-1.84-3.29-2.26-6.83-1.44-9.8-3.99-1.69-7.04-5.89-7.48-11-.55-6.32,3.06-11.84,8.28-13.11-.03-1.69.23-3.47.8-5.24,2.06-6.47,7.58-10.87,13.1-10.9,1.26-3.72,5.16-7,10.38-8.26,3.68-.89,7.33-.61,10.25.57,2.53-3.03,7.32-5.16,12.87-5.31,5.99-.17,11.24,1.99,13.81,5.27,4.22-2.89,11.04-2.26,16.2,1.75,1.73,1.35,3.08,2.93,4.02,4.59,3.18-.37,6.79.32,10.06,2.15,4.59,2.58,7.28,6.74,7.33,10.62,5.26.64,9.64,5.51,10.18,11.72.16,1.83-.03,3.59-.51,5.21,2.75,3.37,2.99,8.71.21,13.47Z"/><path class="cls-3" d="M89.2,156h0c-7.93,0-17.01,2.25-14.36-23.51l2.5-39.99c2.3-21.76,3.93-23.13,11.86-23.13h0c7.93,0,9.83,0,11.55,23.89l2.81,39.22c2.93,27.12-6.43,23.51-14.36,23.51Z"/><path class="cls-4" d="M142.52,59.29c-2.76,4.73-7.71,7.52-12.28,7.35.36,3.98-2.1,8.45-6.69,11.33-5.29,3.33-11.73,3.49-15.68.72-1.08,1.05-2.37,2-3.85,2.78-4.62,2.44-9.85,2.65-13.6.9-1.79,1.47-4.1,2.63-6.74,3.27-6.51,1.58-12.92-.51-15.39-4.73-4.5,2.26-11.32.88-16.4-3.65-.92-.82-1.74-1.7-2.44-2.62-5.25,1.68-11.74-1.3-14.97-7.08-1.84-3.29-2.26-6.83-1.44-9.8-3.99-1.69-7.04-5.89-7.48-11-.55-6.32,3.06-11.84,8.28-13.11-.03-1.69.23-3.47.8-5.24,2.06-6.47,7.58-10.87,13.1-10.9,1.26-3.72,5.16-7,10.38-8.26,3.68-.89,7.33-.61,10.25.57,2.53-3.03,7.32-5.16,12.87-5.31,5.99-.17,11.24,1.99,13.81,5.27,4.22-2.89,11.04-2.26,16.2,1.75,1.73,1.35,3.08,2.93,4.02,4.59,3.18-.37,6.79.32,10.06,2.15,4.59,2.58,7.28,6.74,7.33,10.62,5.26.64,9.64,5.51,10.18,11.72.16,1.83-.03,3.59-.51,5.21,2.75,3.37,2.99,8.71.21,13.47Z"/><path class="cls-2" d="M93.31,142.65c1.74,2.86,4.85,4.55,7.73,4.44-.23,2.41,1.32,5.11,4.21,6.85,3.33,2.01,7.37,2.11,9.86.43.68.63,1.49,1.21,2.42,1.68,2.91,1.48,6.19,1.6,8.56.55,1.13.89,2.58,1.59,4.24,1.97,4.1.95,8.12-.31,9.68-2.86,2.83,1.37,7.12.53,10.32-2.21.58-.5,1.09-1.03,1.53-1.58,3.3,1.02,7.38-.78,9.42-4.28,1.16-1.99,1.42-4.13.91-5.92,2.51-1.02,4.42-3.56,4.71-6.65.34-3.82-1.92-7.16-5.21-7.92.02-1.02-.15-2.1-.5-3.17-1.3-3.91-4.77-6.57-8.24-6.59-.79-2.25-3.24-4.23-6.53-5-2.32-.54-4.61-.37-6.45.34-1.59-1.83-4.6-3.12-8.09-3.21-3.77-.1-7.07,1.2-8.68,3.19-2.65-1.75-6.94-1.37-10.19,1.06-1.09.82-1.94,1.77-2.53,2.78-2-.22-4.27.19-6.32,1.3-2.89,1.56-4.58,4.07-4.61,6.42-3.31.39-6.06,3.33-6.4,7.08-.1,1.11.02,2.17.32,3.15-1.73,2.04-1.88,5.26-.13,8.14Z"/></svg>