<?xml version="1.0" encoding="UTF-8"?><svg id="Layer_1" xmlns="http://www.w3.org/2000/svg" width="200" height="190" viewBox="0 0 200 190"><defs><style>.cls-1{fill:#faf9f6;stroke:#000;stroke-miterlimit:10;}.cls-2{fill:#51995e;stroke-width:0px;}</style></defs><ellipse class="cls-1" cx="100" cy="90.5" rx="90" ry="85"/><path class="cls-2" d="M15.2,47.46c5.73,1.5,33.92,8.34,48.91,35.54,9.06,16.44,3.08,23.51,14.29,48.59,10.74,24.03,46.21,43.93,26.26,34.52-3.71-1.75-23.88-5.88-37.92-25.4-10.85-15.09-3.11-25.26-12.88-46.62C38.64,60.83-4.2,42.4,15.2,47.46Z"/><path class="cls-2" d="M88.26,21.72c3.44,2.26,25.23,12.77,25.24,35.67,0,2.61.52,5.76-6.81,24.36-13.07,33.14-9.41,35.45-9.57,42.67-.55,25.47,15.51,42.25,13.49,43.75-1.97,1.46-15.45-14.85-25.78-36.69-10.51-22.23-.87-33.14,7.39-50.53,5.95-12.52,11-20.71,4.4-35.16-8.02-17.55-10.56-25.52-8.36-24.08Z"/><path class="cls-2" d="M152.78,11.64c3.09-.14,20.94,31.7,13.39,55.35-4.95,15.49-24.42,21.37-30.53,26.46-2.93,2.44-7.6,5.54-14.46,13.32-19.25,21.82-8.06,61.03-10.48,61.37-1.99.28-15.12-26.58-7.92-53.47,3.66-13.65,12.18-23.65,21.13-30.34,12.4-9.27,20.83-9.64,26.41-19.26,13.64-23.53-.51-53.28,2.45-53.42Z"/><path class="cls-2" d="M173.65,89.62c-7.4,9.81-14.53,12.04-23.33,13.48-10.29,1.69-12.57,1.59-18.93,6.74-4.53,3.67-6.69,8.22-11.89,23.6-4.41,13.05-11.44,33.87-9.68,34.67,1.66.76,10.94-13.37,22.45-32.27,3.52-5.78,3.08-14.45,17.61-16.37,13.16-1.74,20.37-6.89,22.89-9.15,18.82-16.9,19.23-52.25,15.85-53.46-1.8-.64-3.35,17.35-14.97,32.75Z"/></svg>