<?xml version="1.0" encoding="UTF-8"?><svg id="Layer_1" xmlns="http://www.w3.org/2000/svg" width="200" height="190" viewBox="0 0 200 190"><defs><style>.cls-1{fill:#faf9f6;stroke:#000;stroke-miterlimit:10;}.cls-2{fill:#537d41;}.cls-2,.cls-3{stroke-width:0px;}.cls-3{fill:#53a841;}</style></defs><ellipse class="cls-1" cx="100" cy="89.71" rx="90" ry="85"/><path class="cls-3" d="M124.28,21.66c4.35,12.27,4.13,21.7,3.9,25.45-.43,7.09-.71,11.64-4.31,16.16-5.2,6.52-13.2,7.83-14.52,8.03-10.48,1.56-21.72-4-25.87-12.64-3.43-7.15-.93-14.14,1.55-21.04,2.45-6.84,6.43-11.61,14.38-21.16,10.22-12.27,12.85-12.29,13.85-12.19,5.05.53,7.85,8.43,11.03,17.4Z"/><path class="cls-2" d="M84.82,168.16c-.63-1.98-.11.13,4.05-27.35,4.93-32.54,16.6-95.18,18.18-98.98,3.04-7.29-19.44,135.09-22.24,126.34Z"/><path class="cls-3" d="M163.73,70.82c-12.06-3.04-21.14-2.34-24.74-1.94-6.81.75-11.18,1.23-15.34,4.54-6.01,4.77-6.84,11.65-6.96,12.79-.94,9,5.03,18.26,13.58,21.33,7.07,2.53,13.68.02,20.2-2.45,6.46-2.45,10.85-6.09,19.62-13.37,11.28-9.36,11.16-11.59,11-12.44-.78-4.26-8.55-6.22-17.36-8.44Z"/><path class="cls-2" d="M142.97,84.51c-1.25,1.56-12.88,5.29-22.46,9.3-13.3,5.58-22.24,11.1-23.8,10.67-4.95-1.36,49.34-23.82,46.26-19.98Z"/><path class="cls-3" d="M46.46,49.14c12.42,1.23,20.63,4.95,23.83,6.53,6.07,3,9.96,4.92,12.58,9.41,3.78,6.48,1.93,13.18,1.61,14.28-2.56,8.71-11.68,15.35-20.83,15.32-7.57-.02-12.78-4.59-17.92-9.1-5.09-4.47-7.79-9.35-13.2-19.1-6.95-12.54-5.98-14.58-5.51-15.32,2.36-3.72,10.35-2.92,19.43-2.02Z"/><path class="cls-2" d="M60.6,68.92c.57,1.88,10,9.28,17.4,16.26,10.28,9.69,16.52,17.86,18.13,17.99,5.14.4-36.94-38.87-35.54-34.25Z"/><path class="cls-3" d="M155.06,114.63c-12.06-3.04-21.14-2.34-24.74-1.94-6.81.75-11.18,1.23-15.34,4.54-6.01,4.77-6.84,11.65-6.96,12.79-.94,9,5.03,18.26,13.58,21.33,7.07,2.53,13.68.02,20.2-2.45,6.46-2.45,10.85-6.09,19.62-13.37,11.28-9.36,11.16-11.59,11-12.44-.78-4.26-8.55-6.22-17.36-8.44Z"/><path class="cls-2" d="M135.37,127.62c-1.25,1.56-12.88,5.29-22.46,9.3-13.3,5.58-22.24,11.1-23.8,10.67-4.95-1.36,49.34-23.82,46.26-19.98Z"/><path class="cls-3" d="M38.85,98.75c12.42,1.23,20.63,4.95,23.83,6.53,6.07,3,9.96,4.92,12.58,9.41,3.78,6.48,1.93,13.18,1.61,14.28-2.56,8.71-11.68,15.35-20.83,15.32-7.57-.02-12.78-4.59-17.92-9.1-5.09-4.47-7.79-9.35-13.2-19.1-6.95-12.54-5.98-14.58-5.51-15.32,2.36-3.72,10.35-2.92,19.43-2.02Z"/><path class="cls-2" d="M52.99,118.53c.57,1.88,10,9.28,17.4,16.26,10.28,9.69,16.52,17.86,18.13,17.99,5.14.4-36.94-38.87-35.54-34.25Z"/></svg>