<?xml version="1.0" encoding="UTF-8"?><svg id="Layer_1" xmlns="http://www.w3.org/2000/svg" width="200" height="200" viewBox="0 0 200 200"><defs><style>.cls-1{fill:#faf9f6;stroke:#000;stroke-miterlimit:10;}.cls-2{fill:#298145;}.cls-2,.cls-3,.cls-4,.cls-5{stroke-width:0px;}.cls-3{fill:#a67c52;}.cls-4{fill:#009245;}.cls-5{fill:#007e45;}</style></defs><circle class="cls-1" cx="99.62" cy="102.74" r="95.26"/><path class="cls-5" d="M144.85,70.76c-2.92,5.49-8.16,8.71-13,8.52.38,4.61-2.22,9.79-7.08,13.13-5.6,3.86-12.41,4.04-16.59.83-1.14,1.22-2.51,2.31-4.08,3.22-4.89,2.83-10.42,3.07-14.4,1.05-1.9,1.7-4.34,3.04-7.14,3.78-6.89,1.83-13.67-.6-16.29-5.48-4.76,2.62-11.98,1.02-17.36-4.23-.98-.95-1.84-1.97-2.58-3.03-5.56,1.95-12.42-1.5-15.85-8.2-1.95-3.82-2.39-7.91-1.52-11.36-4.22-1.95-7.45-6.82-7.92-12.74-.58-7.32,3.24-13.72,8.76-15.19-.03-1.96.24-4.02.84-6.08,2.18-7.49,8.03-12.6,13.87-12.63,1.34-4.31,5.46-8.11,10.99-9.58,3.9-1.03,7.76-.71,10.85.66,2.68-3.52,7.75-5.97,13.62-6.16,6.34-.2,11.9,2.31,14.61,6.11,4.46-3.35,11.69-2.62,17.15,2.03,1.83,1.56,3.26,3.39,4.25,5.32,3.37-.43,7.19.37,10.64,2.49,4.86,2.99,7.71,7.81,7.75,12.3,5.56.74,10.2,6.38,10.78,13.58.17,2.12-.03,4.16-.54,6.03,2.91,3.91,3.16,10.09.22,15.61Z"/><path class="cls-3" d="M88.59,176.56h0c-8.39,0-18.01,2.61-15.2-27.24l2.64-46.34c2.44-25.22,4.16-26.8,12.55-26.8h0c8.39,0,10.4,0,12.22,27.69l2.97,45.45c3.1,31.43-6.8,27.24-15.2,27.24Z"/><path class="cls-4" d="M145.02,64.5c-2.92,5.49-8.16,8.71-13,8.52.38,4.61-2.22,9.79-7.08,13.13-5.6,3.86-12.41,4.04-16.59.83-1.14,1.22-2.51,2.31-4.08,3.22-4.89,2.83-10.42,3.07-14.4,1.05-1.9,1.7-4.34,3.04-7.14,3.78-6.89,1.83-13.67-.6-16.29-5.48-4.76,2.62-11.98,1.02-17.36-4.23-.98-.95-1.84-1.97-2.58-3.03-5.56,1.95-12.42-1.5-15.85-8.2-1.95-3.82-2.39-7.91-1.52-11.36-4.22-1.95-7.45-6.82-7.92-12.74-.58-7.32,3.24-13.72,8.76-15.19-.03-1.96.24-4.02.84-6.08,2.18-7.49,8.03-12.6,13.87-12.63,1.34-4.31,5.46-8.11,10.99-9.58,3.9-1.03,7.76-.71,10.85.66,2.68-3.52,7.75-5.97,13.62-6.16,6.34-.2,11.9,2.31,14.61,6.11,4.46-3.35,11.69-2.62,17.15,2.03,1.83,1.56,3.26,3.39,4.25,5.32,3.37-.43,7.19.37,10.64,2.49,4.86,2.99,7.71,7.81,7.75,12.3,5.56.74,10.2,6.38,10.78,13.58.17,2.12-.03,4.16-.54,6.03,2.91,3.91,3.16,10.09.22,15.61Z"/><path class="cls-2" d="M92.94,161.09c1.84,3.32,5.13,5.27,8.18,5.15-.24,2.79,1.4,5.92,4.45,7.94,3.52,2.33,7.81,2.45,10.44.5.72.73,1.58,1.4,2.56,1.95,3.08,1.71,6.55,1.86,9.06.63,1.19,1.03,2.73,1.84,4.49,2.29,4.34,1.1,8.6-.36,10.24-3.31,2.99,1.59,7.53.62,10.92-2.56.62-.58,1.16-1.19,1.62-1.83,3.49,1.18,7.81-.91,9.97-4.96,1.23-2.31,1.5-4.78.96-6.87,2.66-1.18,4.68-4.12,4.98-7.7.36-4.43-2.04-8.29-5.51-9.18.02-1.19-.15-2.43-.53-3.67-1.37-4.53-5.05-7.61-8.72-7.63-.84-2.61-3.43-4.9-6.91-5.79-2.45-.62-4.88-.43-6.82.4-1.69-2.13-4.87-3.61-8.57-3.72-3.99-.12-7.48,1.4-9.19,3.7-2.81-2.03-7.35-1.59-10.79,1.23-1.15.94-2.05,2.05-2.67,3.22-2.12-.26-4.52.22-6.69,1.51-3.06,1.81-4.85,4.72-4.88,7.44-3.5.45-6.42,3.86-6.78,8.21-.11,1.28.02,2.52.34,3.65-1.83,2.36-1.99,6.1-.14,9.44Z"/></svg>