<?xml version="1.0" encoding="UTF-8"?><svg id="Layer_1" xmlns="http://www.w3.org/2000/svg" width="200" height="190" viewBox="0 0 200 190"><defs><style>.cls-1{fill:#faf9f6;stroke:#000;stroke-miterlimit:10;}.cls-2{fill:#774f3c;}.cls-2,.cls-3,.cls-4,.cls-5,.cls-6,.cls-7,.cls-8{stroke-width:0px;}.cls-3{fill:#c7b299;}.cls-4{fill:#d65e24;}.cls-5{fill:#bd3f24;}.cls-6{fill:#b48e00;}.cls-7{fill:#9a4f3c;}.cls-8{fill:#f0ac24;}</style></defs><ellipse class="cls-1" cx="100" cy="91" rx="90" ry="85"/><path class="cls-4" d="M117.22,72.02c0,2.44-6.83-5.27-23.37-5.27s-20.79,7.14-20.79,4.7,5.83-16.51,22.37-16.51,21.79,14.64,21.79,17.08Z"/><path class="cls-5" d="M73.19,14.25c11.2-9.48,17.98-10.17,22.98-10.12,5.13.05,11.44.71,21.18,10.12,13.29,12.83,21.64,22.77,32.28,38.22,2.42,3.51,3.67,9.23,3.22,11.81-.61,3.54-10.52,4.3-24.01,6.98-32.93,6.54-42.72,6.75-54.21,4.72-2.95-.52-36.93-1.96-38.15-11.7-.64-5.15,0-7.27,2.25-10.23,8.26-10.85,12.8-17.49,16.51-21.25,4.71-4.77,10.94-12.62,17.95-18.55Z"/><ellipse class="cls-4" cx="94.66" cy="65.12" rx="58.19" ry="17.73"/><path class="cls-3" d="M94.66,154.44h0c-16.38,0-29.66-11.73-29.66-26.19l5.16-44.55c3.55-14.52,8.12-25.76,24.5-25.76h0c16.38,0,22.57,11.81,23.85,26.62l5.8,43.7c0,14.47-13.28,26.19-29.66,26.19Z"/><path class="cls-7" d="M134.3,61.13c7.42-6.28,11.9-6.73,15.21-6.7,3.39.03,7.57.47,14.02,6.7,8.8,8.5,14.33,15.08,21.37,25.31,1.6,2.33,2.43,6.11,2.13,7.82-.4,2.34-6.97,2.84-15.9,4.62-21.81,4.33-28.29,4.47-35.89,3.13-1.95-.34-24.45-1.3-25.26-7.75-.43-3.41,0-4.81,1.49-6.77,5.47-7.18,8.48-11.58,10.93-14.07,3.12-3.16,7.24-8.36,11.88-12.28Z"/><ellipse class="cls-2" cx="148.51" cy="94.82" rx="38.53" ry="11.74"/><path class="cls-3" d="M148.51,153.96h0c-10.85,0-19.64-7.76-19.64-17.34l3.42-29.5c2.35-9.61,5.38-17.06,16.22-17.06h0c10.85,0,14.94,7.82,15.79,17.62l3.84,28.94c0,9.58-8.79,17.34-19.64,17.34Z"/><path class="cls-2" d="M163.46,99.39c0,1.61-4.52-3.49-15.47-3.49s-13.77,4.72-13.77,3.11,3.86-10.93,14.81-10.93,14.43,9.7,14.43,11.31Z"/><path class="cls-8" d="M39.86,89.18c5.07-4.29,8.13-4.6,10.39-4.58,2.32.02,5.17.32,9.58,4.58,6.01,5.8,9.79,10.3,14.6,17.29,1.09,1.59,1.66,4.17,1.46,5.34-.27,1.6-4.76,1.94-10.86,3.16-14.9,2.96-19.33,3.05-24.52,2.14-1.33-.24-16.71-.89-17.26-5.29-.29-2.33,0-3.29,1.02-4.63,3.74-4.91,5.79-7.91,7.47-9.61,2.13-2.16,4.95-5.71,8.12-8.39Z"/><ellipse class="cls-6" cx="49.58" cy="112.2" rx="26.32" ry="8.02"/><path class="cls-3" d="M49.58,152.61h0c-7.41,0-13.42-5.3-13.42-11.85l2.33-20.16c1.6-6.57,3.67-11.66,11.08-11.66h0c7.41,0,10.21,5.34,10.79,12.04l2.62,19.77c0,6.54-6.01,11.85-13.42,11.85Z"/><path class="cls-6" d="M59.78,115.32c0,1.1-3.09-2.38-10.57-2.38s-9.41,3.23-9.41,2.13,2.64-7.47,10.12-7.47,9.86,6.62,9.86,7.73Z"/><path class="cls-4" d="M116.42,72.22c0,2.44-6.83-5.27-23.37-5.27s-20.79,7.14-20.79,4.7,5.83-16.51,22.37-16.51,21.79,14.64,21.79,17.08Z"/></svg>