<?xml version="1.0" encoding="UTF-8"?><svg id="Layer_1" xmlns="http://www.w3.org/2000/svg" width="200" height="190" viewBox="0 0 200 190"><defs><style>.cls-1{stroke:#ffe3aa;}.cls-1,.cls-2{fill:#fff6d1;}.cls-1,.cls-2,.cls-3{stroke-miterlimit:10;}.cls-2{stroke:#fff6d1;}.cls-3{fill:#faf9f6;stroke:#000;}.cls-4{fill:#ffea9f;stroke-width:0px;}</style></defs><ellipse class="cls-3" cx="100" cy="89.65" rx="90" ry="85"/><path class="cls-2" d="M71.47,59.88c-.07.02-.14.04-.21.05,0-.05.01-.09.02-.14.07.03.13.06.2.09Z"/><path class="cls-1" d="M110.21,55.52c-.73-3.49-7.22-5.04-14.44-6.76-3.79-.9-7.29-1.3-10.68-1.18.16-.36.33-.74.5-1.15,1.33-3.15,2.86-6.79,3.23-12.12.3-4.3.92-13.25-3.24-15.03-3.43-1.46-8.54,2.64-14.21,7.19-4.18,3.36-7.18,6.87-9.25,10.89-.15.3-.3.58-.44.85-.18-.28-.36-.57-.56-.87-2.45-3.83-5.77-7.07-10.26-10.06-6.08-4.06-11.55-7.71-14.84-5.96-3.98,2.12-2.51,10.99-1.8,15.25.88,5.27,2.75,8.77,4.37,11.8,1.51,2.82,2.77,4.63,4.07,5.92-.97.54-2.04,1.22-3.25,2.05-2.9,1.99-6.26,4.3-9.59,8.61-2.69,3.49-8.28,10.74-5.77,14.34,2.07,2.97,8.71,2.09,16.08,1.1,5.44-.73,9.96-2.18,13.99-4.53,1.09-.64,2.02-1.18,2.82-1.75.08.92.26,1.93.48,3.1.81,4.41,2.66,8.57,5.7,12.89,4.11,5.86,7.81,11.13,11.54,10.63,4.52-.62,6.55-9.38,7.53-13.59,1.21-5.21.8-9.11.45-12.49-.1-.93-.21-1.77-.33-2.54,1.27-.14,2.75-.41,4.5-.82,3.48-.81,7.52-1.74,12.32-4.55,3.88-2.27,11.96-6.98,11.08-11.21ZM71.25,58.68s.01-.09.02-.14c.07.03.13.06.2.09-.07.02-.14.04-.21.05Z"/><path class="cls-2" d="M71.47,59.88c-.07.02-.14.04-.21.05,0-.05.01-.09.02-.14.07.03.13.06.2.09Z"/><path class="cls-2" d="M71.47,59.88c-.07.02-.14.04-.21.05,0-.05.01-.09.02-.14.07.03.13.06.2.09Z"/><ellipse class="cls-4" cx="67.05" cy="56.15" rx="4.49" ry="4.24"/><path class="cls-2" d="M146.03,73.09c-.07.02-.14.04-.21.05,0-.05.01-.09.02-.14.07.03.13.06.2.09Z"/><path class="cls-1" d="M184.78,68.72c-.73-3.49-7.22-5.04-14.44-6.76-3.79-.9-7.29-1.3-10.68-1.18.16-.36.33-.74.5-1.15,1.33-3.15,2.86-6.79,3.23-12.12.3-4.3.92-13.25-3.24-15.03-3.43-1.46-8.54,2.64-14.21,7.19-4.18,3.36-7.18,6.87-9.25,10.89-.15.3-.3.58-.44.85-.18-.28-.36-.57-.56-.87-2.45-3.83-5.77-7.07-10.26-10.06-6.08-4.06-11.55-7.71-14.84-5.96-3.98,2.12-2.51,10.99-1.8,15.25.88,5.27,2.75,8.77,4.37,11.8,1.51,2.82,2.77,4.63,4.07,5.92-.97.54-2.04,1.22-3.25,2.05-2.9,1.99-6.26,4.3-9.59,8.61-2.69,3.49-8.28,10.74-5.77,14.34,2.07,2.97,8.71,2.09,16.08,1.1,5.44-.73,9.96-2.18,13.99-4.53,1.09-.64,2.02-1.18,2.82-1.75.08.92.26,1.93.48,3.1.81,4.41,2.66,8.57,5.7,12.89,4.11,5.86,7.81,11.13,11.54,10.63,4.52-.62,6.55-9.38,7.53-13.59,1.21-5.21.8-9.11.45-12.49-.1-.93-.21-1.77-.33-2.54,1.27-.14,2.75-.41,4.5-.82,3.48-.81,7.52-1.74,12.32-4.55,3.88-2.27,11.96-6.98,11.08-11.21ZM145.82,71.89s.01-.09.02-.14c.07.03.13.06.2.09-.07.02-.14.04-.21.05Z"/><path class="cls-2" d="M146.03,73.09c-.07.02-.14.04-.21.05,0-.05.01-.09.02-.14.07.03.13.06.2.09Z"/><path class="cls-2" d="M146.03,73.09c-.07.02-.14.04-.21.05,0-.05.01-.09.02-.14.07.03.13.06.2.09Z"/><ellipse class="cls-4" cx="141.61" cy="69.36" rx="4.49" ry="4.24"/><path class="cls-2" d="M76.01,120.24c-.07.02-.14.04-.21.05,0-.05.01-.09.02-.14.07.03.13.06.2.09Z"/><path class="cls-2" d="M76.01,120.24c-.07.02-.14.04-.21.05,0-.05.01-.09.02-.14.07.03.13.06.2.09Z"/><path class="cls-2" d="M76.01,120.24c-.07.02-.14.04-.21.05,0-.05.01-.09.02-.14.07.03.13.06.2.09Z"/><path class="cls-1" d="M114.76,115.87c-.73-3.49-7.22-5.04-14.44-6.76-3.79-.9-7.29-1.3-10.68-1.18.16-.36.33-.74.5-1.15,1.33-3.15,2.86-6.79,3.23-12.12.3-4.3.92-13.25-3.24-15.03-3.43-1.46-8.54,2.64-14.21,7.19-4.18,3.36-7.18,6.87-9.25,10.89-.15.3-.3.58-.44.85-.18-.28-.36-.57-.56-.87-2.45-3.83-5.77-7.07-10.26-10.06-6.08-4.06-11.55-7.71-14.84-5.96-3.98,2.12-2.51,10.99-1.8,15.25.88,5.27,2.75,8.77,4.37,11.8,1.51,2.82,2.77,4.63,4.07,5.92-.97.54-2.04,1.22-3.25,2.05-2.9,1.99-6.26,4.3-9.59,8.61-2.69,3.49-8.28,10.74-5.77,14.34,2.07,2.97,8.71,2.09,16.08,1.1,5.44-.73,9.96-2.18,13.99-4.53,1.09-.64,2.02-1.18,2.82-1.75.08.92.26,1.93.48,3.1.81,4.41,2.66,8.57,5.7,12.89,4.11,5.86,7.81,11.13,11.54,10.63,4.52-.62,6.55-9.38,7.53-13.59,1.21-5.21.8-9.11.45-12.49-.1-.93-.21-1.77-.33-2.54,1.27-.14,2.75-.41,4.5-.82,3.48-.81,7.52-1.74,12.32-4.55,3.88-2.27,11.96-6.98,11.08-11.21ZM75.8,119.03s.01-.09.02-.14c.07.03.13.06.2.09-.07.02-.14.04-.21.05Z"/><ellipse class="cls-4" cx="71.59" cy="116.5" rx="4.49" ry="4.24"/></svg>