<?xml version="1.0" encoding="UTF-8"?><svg id="Layer_1" xmlns="http://www.w3.org/2000/svg" width="200" height="200" viewBox="0 0 200 200"><defs><style>.cls-1{fill:#faf9f6;stroke:#000;stroke-miterlimit:10;}.cls-2{fill:#774f3c;}.cls-2,.cls-3,.cls-4,.cls-5,.cls-6,.cls-7,.cls-8{stroke-width:0px;}.cls-3{fill:#c7b299;}.cls-4{fill:#d65e24;}.cls-5{fill:#bd3f24;}.cls-6{fill:#b48e00;}.cls-7{fill:#9a4f3c;}.cls-8{fill:#f0ac24;}</style></defs><circle class="cls-1" cx="100.92" cy="106.07" r="92.93"/><path class="cls-4" d="M117.75,79.63c0,2.85-7.05-6.16-24.13-6.16s-21.47,8.34-21.47,5.49,6.02-19.31,23.1-19.31,22.5,17.12,22.5,19.97Z"/><path class="cls-5" d="M72.29,12.08C83.85,1,90.85.19,96.01.25c5.29.06,11.81.83,21.87,11.83,13.72,15,22.34,26.62,33.33,44.68,2.5,4.11,3.79,10.79,3.33,13.81-.63,4.14-10.86,5.02-24.8,8.16-34,7.65-44.11,7.89-55.97,5.52-3.05-.61-38.13-2.29-39.39-13.68-.67-6.02,0-8.5,2.33-11.96,8.53-12.68,13.22-20.44,17.05-24.85,4.86-5.58,11.3-14.76,18.53-21.69Z"/><ellipse class="cls-4" cx="94.46" cy="71.56" rx="60.08" ry="20.73"/><path class="cls-3" d="M94.46,175.99h0c-16.91,0-30.62-13.71-30.62-30.62l5.33-52.09c3.66-16.98,8.38-30.12,25.3-30.12h0c16.91,0,23.3,13.81,24.63,31.12l5.99,51.09c0,16.91-13.71,30.62-30.62,30.62Z"/><path class="cls-7" d="M135.38,66.9c7.66-7.34,12.29-7.87,15.71-7.83,3.5.04,7.82.55,14.48,7.83,9.08,9.93,14.79,17.63,22.07,29.59,1.65,2.72,2.51,7.14,2.2,9.14-.42,2.74-7.19,3.33-16.42,5.4-22.51,5.06-29.21,5.22-37.06,3.66-2.02-.4-25.25-1.52-26.08-9.06-.44-3.99,0-5.63,1.54-7.92,5.65-8.4,8.75-13.54,11.29-16.45,3.22-3.69,7.48-9.77,12.27-14.36Z"/><ellipse class="cls-2" cx="150.06" cy="106.29" rx="39.78" ry="13.72"/><path class="cls-3" d="M150.06,175.43h0c-11.2,0-20.28-9.08-20.28-20.28l3.53-34.49c2.42-11.24,5.55-19.94,16.75-19.94h0c11.2,0,15.43,9.15,16.31,20.61l3.97,33.83c0,11.2-9.08,20.28-20.28,20.28Z"/><path class="cls-2" d="M165.49,111.63c0,1.89-4.67-4.08-15.98-4.08s-14.21,5.52-14.21,3.64,3.98-12.78,15.29-12.78,14.9,11.34,14.9,13.22Z"/><path class="cls-8" d="M37.88,99.69c5.23-5.01,8.4-5.38,10.73-5.35,2.39.03,5.34.37,9.89,5.35,6.21,6.79,10.11,12.04,15.08,20.21,1.13,1.86,1.71,4.88,1.51,6.25-.28,1.87-4.91,2.27-11.22,3.69-15.38,3.46-19.95,3.57-25.32,2.5-1.38-.27-17.25-1.04-17.82-6.19-.3-2.72,0-3.84,1.05-5.41,3.86-5.74,5.98-9.25,7.71-11.24,2.2-2.52,5.11-6.68,8.38-9.81Z"/><ellipse class="cls-6" cx="47.91" cy="126.6" rx="27.18" ry="9.38"/><path class="cls-3" d="M47.91,173.84h0c-7.65,0-13.85-6.2-13.85-13.85l2.41-23.57c1.66-7.68,3.79-13.63,11.44-13.63h0c7.65,0,10.54,6.25,11.14,14.08l2.71,23.11c0,7.65-6.2,13.85-13.85,13.85Z"/><path class="cls-6" d="M58.45,130.25c0,1.29-3.19-2.79-10.92-2.79s-9.71,3.77-9.71,2.48,2.72-8.73,10.45-8.73,10.18,7.75,10.18,9.03Z"/><path class="cls-4" d="M116.92,79.87c0,2.85-7.05-6.16-24.13-6.16s-21.47,8.34-21.47,5.49,6.02-19.31,23.1-19.31,22.5,17.12,22.5,19.97Z"/></svg>