<?xml version="1.0" encoding="UTF-8"?><svg id="Layer_1" xmlns="http://www.w3.org/2000/svg" width="200" height="200" viewBox="0 0 200 200"><defs><style>.cls-1{fill:#faf9f6;stroke:#000;stroke-miterlimit:10;}.cls-2{fill:#6eb551;}.cls-2,.cls-3,.cls-4{stroke-width:0px;}.cls-3{fill:#8cab3f;}.cls-4{fill:#8cc63f;}</style></defs><ellipse class="cls-1" cx="100.25" cy="107.27" rx="98.25" ry="90.73"/><path class="cls-4" d="M19.19,34.09c3.43-5.22,34.16.75,38.05,13.94,1.65,5.61-.87,8.31,3.19,13.32,2.51,3.09,3.45,4.42,8.34,8.15,1.37,1.05,9.21,7.02,9.08,14.48-.07,4.09.24,3.25-.94,9.75-.67,3.7-.77,7.66,1.61,10.61,2.74,3.4,2.12,3.16,7.11,6.44,4.68,3.08,8.57,8.63,9.06,14.23.52,5.95-1.6,6.72-.92,13.83.21,2.23.37,3.23,3.24,6.43,2.96,3.3,4,5.59,8.98,9.39,2.47,1.88,5.68,4.33,6.67,8,.74,2.76-.14,4.89-4.55,13.3-7.19,13.71-8.56,18.03-8.81,19.18-.62,2.85-7.48-10.66-18.12-13.41-5.76-1.49-6.52-2.16-11.63-4.12-1.38-.53-7.4-3.33-9.29-9.88-1.28-4.42-.94-3.78-.07-12.24.55-5.39,1.03-10.08-1.84-13.66-3.73-4.66-8.85-5.71-13.47-10.38-3.79-3.83-3.99-5.64-4.24-12.49-.26-7.34.04-4.29-1-9.89-.57-3.05-.67-5.32-4.4-10.95-2.32-3.51-3.32-3.87-6.61-7.24-4.65-4.76-9.19-12.24-8.83-18.58.62-10.91,6.57-12.56,6.39-22.09-.18-9.35-8.95-13.17-6.99-16.14Z"/><path class="cls-3" d="M94.91,2.08c5.19-3.78,31.7,11.76,30.34,25.37-.58,5.78-3.97,7.51-2.07,13.51,1.17,3.71,1.55,5.26,4.71,10.33.89,1.43,5.96,9.56,3,16.5-1.62,3.8-1.01,3.12-4.58,8.83-2.03,3.24-3.63,6.92-2.52,10.46,1.27,4.07.79,3.65,4.21,8.33,3.21,4.4,4.75,10.85,3.08,16.26-1.77,5.74-4.05,5.78-6.11,12.66-.65,2.15-.88,3.15.59,7.07,1.52,4.05,1.63,6.53,4.85,11.7,1.6,2.56,3.68,5.9,3.21,9.65-.35,2.82-1.98,4.53-9.31,10.98-11.93,10.51-14.86,14.11-15.53,15.11-1.66,2.46-2.96-12.41-11.88-18.42-4.83-3.26-5.29-4.13-9.33-7.62-1.09-.94-5.66-5.51-4.95-12.26.48-4.55.55-3.85,4.58-11.49,2.56-4.87,4.79-9.1,3.47-13.39-1.72-5.58-6.12-8.22-8.68-14.08-2.1-4.81-1.6-6.58.78-13.07,2.54-6.96,1.67-4.01,2.81-9.59.62-3.04,1.39-5.19.04-11.68-.84-4.04-1.64-4.7-3.44-8.92-2.55-5.97-3.96-14.44-1.21-20.26,4.72-10.02,10.92-9.64,14.37-18.62,3.38-8.82-3.38-15.23-.42-17.38Z"/><path class="cls-2" d="M184.33,36.47c-3.25-5.31-34.16-.24-38.5,12.83-1.84,5.55.59,8.34-3.64,13.22-2.61,3.02-3.6,4.32-8.61,7.91-1.41,1.01-9.44,6.75-9.57,14.21-.07,4.09-.35,3.24.61,9.78.55,3.71.51,7.68-1.97,10.56-2.85,3.32-2.23,3.1-7.32,6.23-4.78,2.95-8.86,8.37-9.54,13.96-.72,5.93,1.37,6.77.45,13.85-.29,2.22-.48,3.22-3.45,6.33-3.07,3.22-4.19,5.47-9.29,9.12-2.53,1.81-5.83,4.17-6.94,7.8-.83,2.74-.03,4.89,4.09,13.42,6.72,13.91,7.94,18.27,8.16,19.42.52,2.86,7.84-10.44,18.56-12.87,5.81-1.32,6.59-1.97,11.76-3.78,1.4-.49,7.5-3.11,9.62-9.6,1.43-4.38,1.07-3.75.49-12.23-.37-5.4-.69-10.1,2.3-13.6,3.89-4.55,9.04-5.45,13.82-9.99,3.92-3.72,4.18-5.52,4.66-12.36.51-7.33.1-4.29,1.34-9.85.67-3.03.85-5.29,4.77-10.82,2.44-3.44,3.45-3.78,6.85-7.04,4.81-4.63,9.6-11.97,9.45-18.32-.25-10.92-6.14-12.75-5.63-22.26.5-9.34,9.39-12.9,7.54-15.93Z"/></svg>