<?xml version="1.0" encoding="UTF-8"?><svg id="Layer_1" xmlns="http://www.w3.org/2000/svg" width="200" height="200" viewBox="0 0 200 200"><defs><style>.cls-1{fill:#faf9f6;stroke:#000;stroke-miterlimit:10;}.cls-2{fill:#537d41;}.cls-2,.cls-3{stroke-width:0px;}.cls-3{fill:#53a841;}</style></defs><circle class="cls-1" cx="99.72" cy="99.78" r="97.72"/><path class="cls-3" d="M126.38,21.13c4.72,14.18,4.48,25.08,4.23,29.42-.47,8.2-.77,13.45-4.68,18.68-5.64,7.54-14.33,9.06-15.77,9.28-11.38,1.81-23.59-4.63-28.09-14.61-3.73-8.26-1.01-16.35,1.68-24.32,2.66-7.9,6.98-13.42,15.62-24.46C110.47.92,113.32.9,114.41,1.02c5.48.61,8.52,9.74,11.98,20.11Z"/><path class="cls-2" d="M83.54,190.46c-.69-2.29-.12.15,4.4-31.62,5.35-37.61,18.03-110.02,19.74-114.41,3.3-8.43-21.11,156.15-24.15,146.03Z"/><path class="cls-3" d="M169.22,77.95c-13.09-3.51-22.95-2.71-26.86-2.25-7.4.87-12.14,1.42-16.66,5.25-6.52,5.52-7.43,13.46-7.56,14.78-1.02,10.4,5.46,21.11,14.75,24.65,7.68,2.93,14.86.03,21.93-2.83,7.01-2.83,11.78-7.04,21.31-15.46,12.25-10.82,12.11-13.4,11.95-14.38-.85-4.93-9.28-7.19-18.85-9.76Z"/><path class="cls-2" d="M146.68,93.78c-1.36,1.81-13.99,6.11-24.39,10.75-14.44,6.45-24.15,12.83-25.84,12.34-5.37-1.57,53.57-27.53,50.23-23.09Z"/><path class="cls-3" d="M41.89,52.89c13.48,1.42,22.39,5.72,25.88,7.55,6.59,3.47,10.82,5.69,13.66,10.88,4.11,7.49,2.1,15.23,1.74,16.51-2.78,10.07-12.68,17.74-22.61,17.71-8.22-.02-13.87-5.31-19.45-10.52-5.53-5.16-8.46-10.8-14.33-22.08-7.55-14.49-6.49-16.86-5.99-17.71,2.56-4.29,11.24-3.38,21.1-2.34Z"/><path class="cls-2" d="M57.24,75.75c.62,2.17,10.86,10.73,18.9,18.79,11.16,11.2,17.93,20.65,19.69,20.79,5.58.46-40.11-44.93-38.59-39.59Z"/><path class="cls-3" d="M159.8,128.58c-13.09-3.51-22.95-2.71-26.86-2.25-7.4.87-12.14,1.42-16.66,5.25-6.52,5.52-7.43,13.46-7.56,14.78-1.02,10.4,5.46,21.11,14.75,24.65,7.68,2.93,14.86.03,21.93-2.83,7.01-2.83,11.78-7.04,21.31-15.46,12.25-10.82,12.11-13.4,11.95-14.38-.85-4.93-9.28-7.19-18.85-9.76Z"/><path class="cls-2" d="M138.43,143.61c-1.36,1.81-13.99,6.11-24.39,10.75-14.44,6.45-24.15,12.83-25.84,12.34-5.37-1.57,53.57-27.53,50.23-23.09Z"/><path class="cls-3" d="M33.63,110.23c13.48,1.42,22.39,5.72,25.88,7.55,6.59,3.47,10.82,5.69,13.66,10.88,4.11,7.49,2.1,15.23,1.74,16.51-2.78,10.07-12.68,17.74-22.61,17.71-8.22-.02-13.87-5.31-19.45-10.52-5.53-5.16-8.46-10.8-14.33-22.08-7.55-14.49-6.49-16.86-5.99-17.71,2.56-4.29,11.24-3.38,21.1-2.34Z"/><path class="cls-2" d="M48.98,133.1c.62,2.17,10.86,10.73,18.9,18.79,11.16,11.2,17.93,20.65,19.69,20.79,5.58.46-40.11-44.93-38.59-39.59Z"/></svg>