<?xml version="1.0" encoding="UTF-8"?><svg id="Layer_1" xmlns="http://www.w3.org/2000/svg" width="400" height="350" viewBox="0 0 400 350"><defs><style>.cls-1{stroke:#000;}.cls-1,.cls-2,.cls-3{stroke-miterlimit:10;}.cls-1,.cls-2,.cls-4{fill:#fff;}.cls-2{stroke:#ccc;}.cls-3{fill:none;stroke:#b3b3b3;}.cls-5{fill:#612f00;}.cls-5,.cls-6,.cls-7,.cls-8,.cls-4,.cls-9{stroke-width:0px;}.cls-6{fill:gray;}.cls-7{fill:#1d1200;}.cls-8{fill:#ccc;}.cls-9{fill:#e64242;}</style></defs><rect class="cls-9" x="-.26" y=".34" width="400" height="350"/><path class="cls-1" d="M23.97,146.33h20.66v4.15h-15.71v12.75h14.51v4.1h-14.51v17.35h-4.95v-38.35Z"/><path class="cls-1" d="M74.67,170.68c0,10.18-7.05,14.62-13.71,14.62-7.45,0-13.2-5.46-13.2-14.17,0-9.22,6.03-14.62,13.66-14.62s13.26,5.75,13.26,14.17ZM52.82,170.97c0,6.03,3.47,10.58,8.37,10.58s8.36-4.5,8.36-10.7c0-4.67-2.33-10.58-8.25-10.58s-8.48,5.46-8.48,10.7Z"/><path class="cls-1" d="M80.98,165.73c0-3.24-.06-6.03-.23-8.59h4.38l.17,5.41h.23c1.25-3.7,4.27-6.03,7.62-6.03.57,0,.97.06,1.42.17v4.72c-.51-.11-1.03-.17-1.71-.17-3.53,0-6.03,2.67-6.71,6.43-.11.68-.23,1.48-.23,2.33v14.68h-4.95v-18.95Z"/><path class="cls-1" d="M114.55,184.68l-.4-3.47h-.17c-1.54,2.16-4.5,4.1-8.42,4.1-5.58,0-8.42-3.93-8.42-7.91,0-6.66,5.92-10.3,16.56-10.24v-.57c0-2.28-.62-6.37-6.26-6.37-2.56,0-5.23.8-7.17,2.05l-1.14-3.3c2.28-1.48,5.58-2.45,9.05-2.45,8.42,0,10.47,5.75,10.47,11.27v10.3c0,2.39.11,4.72.46,6.6h-4.55ZM113.81,170.62c-5.46-.11-11.66.85-11.66,6.2,0,3.24,2.16,4.78,4.72,4.78,3.58,0,5.86-2.28,6.66-4.61.17-.51.28-1.08.28-1.59v-4.78Z"/><path class="cls-1" d="M150.45,157.14c-.11,1.99-.23,4.21-.23,7.57v15.99c0,6.32-1.25,10.19-3.93,12.58-2.67,2.5-6.54,3.3-10.01,3.3s-6.94-.8-9.16-2.28l1.25-3.81c1.82,1.14,4.67,2.16,8.08,2.16,5.12,0,8.88-2.67,8.88-9.62v-3.07h-.11c-1.54,2.56-4.5,4.61-8.76,4.61-6.83,0-11.72-5.8-11.72-13.43,0-9.33,6.09-14.62,12.4-14.62,4.78,0,7.4,2.5,8.59,4.78h.11l.23-4.15h4.38ZM145.27,168.01c0-.85-.06-1.59-.29-2.28-.91-2.9-3.36-5.29-7-5.29-4.78,0-8.19,4.04-8.19,10.41,0,5.41,2.73,9.9,8.14,9.9,3.07,0,5.86-1.93,6.94-5.12.28-.85.4-1.82.4-2.67v-4.95Z"/><path class="cls-1" d="M163.76,149.4c.06,1.71-1.19,3.07-3.19,3.07-1.76,0-3.02-1.37-3.02-3.07s1.31-3.13,3.13-3.13,3.07,1.37,3.07,3.13ZM158.18,184.68v-27.54h5.01v27.54h-5.01Z"/><path class="cls-1" d="M171.49,164.59c0-2.84-.06-5.18-.23-7.45h4.44l.29,4.55h.11c1.37-2.62,4.55-5.18,9.1-5.18,3.81,0,9.73,2.28,9.73,11.72v16.44h-5.01v-15.88c0-4.44-1.65-8.14-6.37-8.14-3.3,0-5.86,2.33-6.71,5.12-.23.63-.34,1.48-.34,2.33v16.56h-5.01v-20.09Z"/><path class="cls-1" d="M226.79,157.14c-.11,1.99-.23,4.21-.23,7.57v15.99c0,6.32-1.25,10.19-3.93,12.58-2.68,2.5-6.54,3.3-10.02,3.3s-6.94-.8-9.16-2.28l1.25-3.81c1.82,1.14,4.67,2.16,8.08,2.16,5.12,0,8.88-2.67,8.88-9.62v-3.07h-.11c-1.54,2.56-4.49,4.61-8.76,4.61-6.83,0-11.72-5.8-11.72-13.43,0-9.33,6.09-14.62,12.4-14.62,4.78,0,7.4,2.5,8.59,4.78h.12l.23-4.15h4.38ZM221.62,168.01c0-.85-.06-1.59-.28-2.28-.91-2.9-3.36-5.29-7-5.29-4.78,0-8.19,4.04-8.19,10.41,0,5.41,2.73,9.9,8.14,9.9,3.07,0,5.86-1.93,6.94-5.12.29-.85.4-1.82.4-2.67v-4.95Z"/><path class="cls-1" d="M270.66,157.14c-.11,1.99-.23,4.21-.23,7.57v15.99c0,6.32-1.25,10.19-3.93,12.58-2.68,2.5-6.54,3.3-10.02,3.3s-6.94-.8-9.16-2.28l1.25-3.81c1.82,1.14,4.67,2.16,8.08,2.16,5.12,0,8.88-2.67,8.88-9.62v-3.07h-.11c-1.54,2.56-4.49,4.61-8.76,4.61-6.83,0-11.72-5.8-11.72-13.43,0-9.33,6.09-14.62,12.4-14.62,4.78,0,7.4,2.5,8.59,4.78h.12l.23-4.15h4.38ZM265.48,168.01c0-.85-.06-1.59-.28-2.28-.91-2.9-3.36-5.29-7-5.29-4.78,0-8.19,4.04-8.19,10.41,0,5.41,2.73,9.9,8.14,9.9,3.07,0,5.86-1.93,6.94-5.12.29-.85.4-1.82.4-2.67v-4.95Z"/><path class="cls-1" d="M301.78,177.17c0,2.84.06,5.35.23,7.51h-4.44l-.28-4.5h-.12c-1.31,2.22-4.21,5.12-9.1,5.12-4.32,0-9.5-2.39-9.5-12.06v-16.1h5.01v15.25c0,5.23,1.59,8.76,6.14,8.76,3.36,0,5.69-2.33,6.6-4.55.29-.74.46-1.65.46-2.56v-16.9h5.01v20.03Z"/><path class="cls-1" d="M315.66,149.4c.06,1.71-1.19,3.07-3.19,3.07-1.76,0-3.02-1.37-3.02-3.07s1.31-3.13,3.13-3.13,3.07,1.37,3.07,3.13ZM310.08,184.68v-27.54h5.01v27.54h-5.01Z"/><path class="cls-1" d="M347.18,144.28v33.29c0,2.45.06,5.23.23,7.11h-4.49l-.23-4.78h-.11c-1.54,3.07-4.89,5.41-9.39,5.41-6.66,0-11.78-5.63-11.78-14-.06-9.16,5.63-14.79,12.35-14.79,4.21,0,7.05,1.99,8.31,4.21h.11v-16.44h5.01ZM342.17,168.35c0-.63-.06-1.48-.23-2.11-.74-3.19-3.47-5.8-7.23-5.8-5.18,0-8.25,4.55-8.25,10.64,0,5.58,2.73,10.18,8.14,10.18,3.36,0,6.43-2.22,7.34-5.97.17-.68.23-1.37.23-2.16v-4.78Z"/><path class="cls-1" d="M358.27,171.82c.12,6.77,4.44,9.56,9.45,9.56,3.59,0,5.75-.63,7.62-1.42l.85,3.58c-1.76.8-4.78,1.71-9.16,1.71-8.48,0-13.54-5.58-13.54-13.88s4.89-14.85,12.92-14.85c8.99,0,11.38,7.91,11.38,12.97,0,1.02-.11,1.82-.17,2.33h-19.35ZM372.95,168.24c.06-3.19-1.31-8.14-6.94-8.14-5.06,0-7.28,4.67-7.68,8.14h14.62Z"/><path class="cls-5" d="M301.26,78.45h7.07c2.3,0,4.17,1.87,4.17,4.17v52.31c0,4.13-3.36,7.49-7.49,7.49h-1.05c-4.13,0-7.49-3.36-7.49-7.49v-51.7c0-2.64,2.14-4.79,4.79-4.79Z" transform="translate(92.42 -134.38) rotate(29.17)"/><rect class="cls-5" x="314.2" y="76.13" width="8.5" height="18.81" transform="translate(85.43 -147.76) rotate(30)"/><circle class="cls-7" cx="340.67" cy="47.15" r="37.06"/><circle class="cls-8" cx="340.5" cy="47.37" r="30.22"/><path class="cls-4" d="M348.74,21.34c.47-.74,13.66,5.2,17.49,15.3,3.62,9.54-.68,21.9-1.49,21.7-.73-.18,1.24-10.73-2.18-19.86-3.74-9.99-14.25-16.46-13.82-17.14Z"/><path class="cls-2" d="M122.41,238.59c4.88-3.48,18.34-12.11,37.61-12.53,20.83-.46,35.49,8.94,40.27,12.3.48,26.65.97,53.3,1.45,79.96-9.06-2.4-21.41-7.96-37.28-9.59-13.73-1.41-33.18-2.83-41.54,0-.77-28.08-.54-42.14-.52-70.14Z"/><path class="cls-2" d="M122.38,238.51c-4.88-3.48-19.15-12-38.42-12.43-20.83-.46-35.5,8.94-40.27,12.3-.48,26.65-.97,53.3-1.45,79.96,9.06-2.4,22.93-8.09,38.81-9.62,14.92-1.44,33.52-2.83,41.88,0,.77-28.08-.52-42.22-.54-70.22Z"/><path class="cls-2" d="M122.62,236.29c4.72-3.37,17.73-11.71,36.37-12.12,20.14-.45,34.32,8.65,38.94,11.9.47,25.77.94,51.54,1.41,77.31-8.76-2.32-21.83-9.31-37.26-9.76-13.73-.4-31.07,2.37-39.15,5.11-.74-27.15-.33-45.37-.3-72.44Z"/><path class="cls-2" d="M122.59,236.21c-4.72-3.37-18.52-11.6-37.15-12.01-20.14-.45-34.32,8.65-38.94,11.9-.47,25.77-.94,51.54-1.41,77.31,8.37-4.68,22.46-8.58,37.65-9.78,13.69-1.09,32.09,2.37,40.17,5.11.74-27.15-.3-45.45-.33-72.52Z"/><path class="cls-2" d="M123.01,233.55c4.51-3.22,16.96-11.2,34.78-11.59,19.26-.43,32.82,8.27,37.24,11.38.45,24.64.9,49.29,1.34,73.93-8.37-2.22-21.2-6.19-35.95-6.62-13.13-.38-29.76,5.46-37.49,8.08-.71-25.96.06-49.29.08-75.18Z"/><path class="cls-2" d="M122.98,233.48c-4.51-3.22-17.71-11.09-35.53-11.49-19.26-.43-32.82,8.27-37.24,11.38-.45,24.64-.9,49.29-1.34,73.93,8.37-2.22,21.2-6.19,35.95-6.62,13.13-.38,30.37,5.44,38.11,8.05.71-25.96.08-49.37.06-75.25Z"/><path class="cls-3" d="M60.79,238.42c5.49-1.98,14.1-4.36,24.85-4.43,10.73-.07,19.35,2.18,24.85,4.09"/><path class="cls-3" d="M60.62,249.3c5.49-1.98,14.1-4.36,24.85-4.43,10.73-.07,19.35,2.18,24.85,4.09"/><path class="cls-3" d="M60.62,260.19c5.49-1.98,14.1-4.36,24.85-4.43,10.73-.07,19.35,2.18,24.85,4.09"/><path class="cls-3" d="M60.62,271.09c5.49-1.98,14.1-4.36,24.85-4.43,10.73-.07,19.35,2.18,24.85,4.09"/><path class="cls-3" d="M61.3,281.98c5.49-1.98,14.1-4.36,24.85-4.43,10.73-.07,19.35,2.18,24.85,4.09"/><path class="cls-3" d="M61.3,292.88c5.49-1.98,14.1-4.36,24.85-4.43,10.73-.07,19.35,2.18,24.85,4.09"/><path class="cls-3" d="M132.9,269.86c5.49-1.98,14.1-4.36,24.85-4.43,10.73-.07,19.35,2.18,24.85,4.09"/><path class="cls-3" d="M133.58,280.75c5.49-1.98,14.1-4.36,24.85-4.43,10.73-.07,19.35,2.18,24.85,4.09"/><path class="cls-3" d="M133.58,291.65c5.49-1.98,14.1-4.36,24.85-4.43,10.73-.07,19.35,2.18,24.85,4.09"/><path class="cls-6" d="M132.5,235.22c5.27-2.08,13.86-4.72,24.72-4.84,11.54-.13,20.65,2.65,26.05,4.75.02,8.4.03,16.81.05,25.21-5.93-1.75-14.16-3.5-24.05-3.65-10.82-.17-19.77,1.65-26.03,3.42-.25-8.3-.49-16.6-.74-24.9Z"/></svg>