<?xml version="1.0" encoding="UTF-8"?><svg id="Layer_1" xmlns="http://www.w3.org/2000/svg" width="400" height="350" viewBox="0 0 400 350"><defs><style>.cls-1,.cls-2{fill:#fff;}.cls-1,.cls-2,.cls-3{stroke-miterlimit:10;}.cls-1,.cls-3{stroke:#000;}.cls-2{stroke:#ccc;}.cls-3{fill:#430000;}.cls-4{fill:#87af8b;}.cls-4,.cls-5{stroke-width:0px;}.cls-5{fill:#ee272d;}</style></defs><rect class="cls-4" x=".46" y=".05" width="400" height="350"/><path class="cls-1" d="M184.16,168.46c-.28-5.35-.63-11.78-.57-16.56h-.17c-1.31,4.5-2.9,9.27-4.84,14.57l-6.77,18.61h-3.75l-6.2-18.26c-1.82-5.41-3.36-10.36-4.44-14.91h-.11c-.11,4.78-.4,11.21-.74,16.96l-1.02,16.44h-4.72l2.67-38.35h6.32l6.54,18.55c1.59,4.72,2.9,8.93,3.87,12.92h.17c.97-3.87,2.33-8.08,4.04-12.92l6.83-18.55h6.32l2.39,38.35h-4.84l-.97-16.84Z"/><path class="cls-1" d="M213.01,185.3l-.4-3.47h-.17c-1.54,2.16-4.5,4.1-8.42,4.1-5.58,0-8.42-3.93-8.42-7.91,0-6.66,5.92-10.3,16.56-10.24v-.57c0-2.28-.63-6.37-6.26-6.37-2.56,0-5.23.8-7.17,2.05l-1.14-3.3c2.28-1.48,5.58-2.45,9.05-2.45,8.42,0,10.47,5.75,10.47,11.27v10.3c0,2.39.11,4.72.46,6.6h-4.55ZM212.27,171.25c-5.46-.11-11.66.85-11.66,6.2,0,3.24,2.16,4.78,4.72,4.78,3.58,0,5.86-2.28,6.66-4.61.17-.51.28-1.08.28-1.59v-4.78Z"/><path class="cls-1" d="M225.18,166.75c0-3.53-.11-6.37-.23-8.99h4.5l.23,4.72h.11c2.05-3.36,5.29-5.35,9.79-5.35,6.66,0,11.66,5.63,11.66,14,0,9.9-6.03,14.79-12.52,14.79-3.64,0-6.83-1.59-8.48-4.32h-.11v14.96h-4.95v-29.82ZM230.13,174.1c0,.74.11,1.42.23,2.05.91,3.47,3.93,5.86,7.51,5.86,5.29,0,8.36-4.33,8.36-10.64,0-5.52-2.9-10.24-8.19-10.24-3.41,0-6.6,2.45-7.57,6.2-.17.63-.34,1.37-.34,2.05v4.72Z"/><polygon class="cls-2" points="279.78 128.15 234.28 115.24 230.18 20.63 277.43 26.88 279.78 128.15"/><polygon class="cls-2" points="279.78 128.15 322.95 113.93 324.17 19.24 277.43 26.88 279.78 128.15"/><polygon class="cls-2" points="367.73 129.15 322.93 113.97 324.11 19.25 370.46 27.89 367.73 129.15"/><ellipse class="cls-3" cx="87.76" cy="272.85" rx="15.15" ry="3.45"/><path class="cls-5" d="M113.46,217.61c0,10.56-3.64,18.04-10.16,27.24l-16.11,27.42-18.99-28c-7.67-11.51-10.55-15.35-10.55-26.37,0-15.29,12.3-27.71,27.55-27.9,15.37-.19,28.25,12.23,28.25,27.6Z"/><circle class="cls-4" cx="85.56" cy="218.49" r="14.67"/></svg>