<?xml version="1.0" encoding="UTF-8"?><svg id="Layer_1" xmlns="http://www.w3.org/2000/svg" width="400" height="350" viewBox="0 0 400 350"><defs><style>.cls-1{fill:#fff;stroke:#000;stroke-miterlimit:10;}.cls-2{fill:#4d775f;}.cls-2,.cls-3,.cls-4,.cls-5{stroke-width:0px;}.cls-3{fill:#c4aa5e;}.cls-4{fill:#c4aaff;}.cls-5{fill:#d98558;}</style></defs><circle class="cls-5" cx="73.63" cy="322.44" r="3.58"/><rect class="cls-2" x=".32" y="-.31" width="400" height="350"/><path class="cls-1" d="M182.1,189.79c-5.18-1.37-10.24-2.9-14.68-4.44-.8-.29-1.59-.57-2.33-.57-9.1-.34-16.9-7.06-16.9-19.4s7.51-20.2,17.87-20.2,17.18,8.08,17.18,19.4c0,9.84-4.55,16.16-10.93,18.38v.23c3.81.97,7.97,1.88,11.21,2.45l-1.42,4.15ZM178,164.81c0-7.68-3.98-15.59-12.12-15.59s-12.46,7.74-12.4,16.05c-.06,8.14,4.44,15.48,12.18,15.48s12.35-7.17,12.35-15.93Z"/><path class="cls-1" d="M212.7,176.65c0,2.84.06,5.35.23,7.51h-4.44l-.29-4.5h-.11c-1.31,2.22-4.21,5.12-9.1,5.12-4.32,0-9.5-2.39-9.5-12.06v-16.1h5.01v15.25c0,5.23,1.59,8.76,6.15,8.76,3.36,0,5.69-2.33,6.6-4.55.29-.74.46-1.65.46-2.56v-16.9h5.01v20.03Z"/><path class="cls-1" d="M226.58,148.88c.06,1.71-1.19,3.07-3.19,3.07-1.76,0-3.02-1.37-3.02-3.07s1.31-3.13,3.13-3.13,3.07,1.37,3.07,3.13ZM221,184.16v-27.54h5.01v27.54h-5.01Z"/><path class="cls-1" d="M231.19,181.25l12.46-16.22c1.2-1.48,2.33-2.79,3.59-4.27v-.11h-14.91v-4.04h21l-.06,3.13-12.29,15.99c-1.14,1.54-2.28,2.9-3.53,4.32v.11h16.1v3.98h-22.36v-2.9Z"/><path class="cls-4" d="M111.78,48.33c-6.62-15.33-21.94-25.21-38.63-24.89-23.14.44-40.02,18.31-41.4,39.09l12.67,1.42c.6-13.03,9.97-24.54,23.46-27.2,15.54-3.07,30.83,7.04,34.12,22.54s-6.57,30.98-22.17,34.45l-11.94,2.65,5.63,25.32,11.94-2.65,2.87-.64-2.89-13c23.45-6.95,36.74-33.06,26.35-57.09Z"/><circle class="cls-4" cx="83.66" cy="135.12" r="8.36"/><path class="cls-3" d="M373.82,154.11c.95-12.19-5.59-23.83-16.52-29.33-15.15-7.62-32.19-1.81-40.18,11.17l7.72,5.25c4.84-8.23,14.85-12.49,24.5-9.6,11.12,3.32,17.57,15.1,14.4,26.26s-14.84,17.83-26.14,14.74l-8.64-2.36-5.01,18.33,8.64,2.36,2.07.57,2.57-9.41c17.57,3.52,35.1-8.86,36.59-27.98Z"/><circle class="cls-3" cx="325.94" cy="200.73" r="6.12"/><path class="cls-5" d="M93.06,262c-2.76-6.6-9.27-10.91-16.42-10.85-9.91.07-17.23,7.64-17.92,16.53l5.42.67c.32-5.58,4.39-10.46,10.18-11.53,6.67-1.24,13.17,3.17,14.5,9.82s-2.97,13.24-9.67,14.64l-5.13,1.08,2.28,10.87,5.13-1.08,1.23-.26-1.17-5.58c10.08-2.86,15.9-13.97,11.57-24.32Z"/><circle class="cls-5" cx="80.58" cy="299.03" r="3.58"/></svg>