<?xml version="1.0" encoding="UTF-8"?><svg id="Layer_1" xmlns="http://www.w3.org/2000/svg" width="400" height="350" viewBox="0 0 400 350"><defs><style>.cls-1{fill:#fff;stroke:#000;stroke-miterlimit:10;}.cls-2{fill:#f3a34f;}.cls-2,.cls-3,.cls-4,.cls-5,.cls-6,.cls-7{stroke-width:0px;}.cls-3{fill:#774f3c;}.cls-4{fill:#537d41;}.cls-5{fill:#53a841;}.cls-6{fill:#9a4f3c;}.cls-7{fill:#ffe597;}</style></defs><rect class="cls-2" width="400" height="350"/><path class="cls-6" d="M301.56,205.5c8.36-8.01,13.42-8.59,17.14-8.55,3.83.04,8.53.6,15.81,8.55,9.91,10.84,16.15,19.24,24.09,32.29,1.8,2.97,2.74,7.8,2.41,9.98-.45,2.99-7.85,3.63-17.92,5.89-24.57,5.53-31.88,5.7-40.45,3.99-2.2-.44-27.56-1.66-28.47-9.88-.48-4.35,0-6.14,1.68-8.64,6.17-9.16,9.55-14.78,12.32-17.96,3.51-4.03,8.16-10.66,13.39-15.68Z"/><ellipse class="cls-3" cx="317.59" cy="248.49" rx="43.42" ry="14.98"/><path class="cls-7" d="M317.59,323.96h0c-12.22,0-22.13-9.91-22.13-22.13l3.85-37.65c2.65-12.27,6.06-21.77,18.28-21.77h0c12.22,0,16.84,9.98,17.8,22.49l4.33,36.93c0,12.22-9.91,22.13-22.13,22.13Z"/><path class="cls-3" d="M334.42,254.32c0,2.06-5.1-4.45-17.44-4.45s-15.52,6.03-15.52,3.97,4.35-13.95,16.69-13.95,16.26,12.37,16.26,14.43Z"/><path class="cls-1" d="M39.91,146.89c2.5-.51,6.09-.8,9.5-.8,5.29,0,8.71.97,11.09,3.13,1.93,1.71,3.02,4.32,3.02,7.28,0,5.06-3.19,8.42-7.23,9.79v.17c2.96,1.02,4.72,3.75,5.63,7.74,1.25,5.35,2.16,9.05,2.96,10.53h-5.12c-.63-1.08-1.48-4.38-2.56-9.16-1.14-5.29-3.19-7.28-7.68-7.45h-4.67v16.62h-4.95v-37.84ZM44.86,164.36h5.06c5.29,0,8.65-2.9,8.65-7.28,0-4.95-3.58-7.11-8.82-7.17-2.39,0-4.1.23-4.89.46v14Z"/><path class="cls-1" d="M86.27,184.73l-.4-3.47h-.17c-1.54,2.16-4.5,4.1-8.42,4.1-5.58,0-8.42-3.93-8.42-7.91,0-6.66,5.92-10.3,16.56-10.24v-.57c0-2.28-.63-6.37-6.26-6.37-2.56,0-5.23.8-7.17,2.05l-1.14-3.3c2.28-1.48,5.58-2.45,9.05-2.45,8.42,0,10.47,5.75,10.47,11.27v10.3c0,2.39.11,4.72.46,6.6h-4.55ZM85.53,170.68c-5.46-.11-11.66.85-11.66,6.2,0,3.24,2.16,4.78,4.72,4.78,3.58,0,5.86-2.28,6.66-4.61.17-.51.28-1.08.28-1.59v-4.78Z"/><path class="cls-1" d="M99.98,157.19l3.64,14c.8,3.07,1.54,5.92,2.05,8.76h.17c.63-2.79,1.54-5.75,2.45-8.71l4.5-14.05h4.21l4.27,13.77c1.02,3.3,1.82,6.2,2.45,8.99h.17c.46-2.79,1.2-5.69,2.11-8.93l3.93-13.83h4.95l-8.88,27.54h-4.55l-4.21-13.14c-.97-3.07-1.76-5.8-2.45-9.05h-.11c-.68,3.3-1.54,6.15-2.5,9.1l-4.44,13.09h-4.55l-8.31-27.54h5.12Z"/><path class="cls-1" d="M184.42,167.89c-.28-5.35-.63-11.78-.57-16.56h-.17c-1.31,4.5-2.9,9.27-4.84,14.57l-6.77,18.61h-3.75l-6.2-18.26c-1.82-5.41-3.36-10.36-4.44-14.91h-.11c-.11,4.78-.4,11.21-.74,16.96l-1.02,16.44h-4.72l2.67-38.35h6.32l6.54,18.55c1.59,4.72,2.9,8.93,3.87,12.92h.17c.97-3.87,2.33-8.08,4.04-12.92l6.83-18.55h6.32l2.39,38.35h-4.84l-.97-16.84Z"/><path class="cls-1" d="M213.26,184.73l-.4-3.47h-.17c-1.54,2.16-4.5,4.1-8.42,4.1-5.58,0-8.42-3.93-8.42-7.91,0-6.66,5.92-10.3,16.56-10.24v-.57c0-2.28-.63-6.37-6.26-6.37-2.56,0-5.23.8-7.17,2.05l-1.14-3.3c2.28-1.48,5.58-2.45,9.05-2.45,8.42,0,10.47,5.75,10.47,11.27v10.3c0,2.39.11,4.72.46,6.6h-4.55ZM212.52,170.68c-5.46-.11-11.66.85-11.66,6.2,0,3.24,2.16,4.78,4.72,4.78,3.58,0,5.86-2.28,6.66-4.61.17-.51.28-1.08.28-1.59v-4.78Z"/><path class="cls-1" d="M231.23,149.28v7.91h7.17v3.81h-7.17v14.85c0,3.41.97,5.35,3.75,5.35,1.31,0,2.28-.17,2.9-.34l.23,3.75c-.97.4-2.5.68-4.44.68-2.33,0-4.21-.74-5.41-2.11-1.42-1.48-1.93-3.93-1.93-7.17v-15.02h-4.27v-3.81h4.27v-6.6l4.89-1.31Z"/><path class="cls-1" d="M246.48,171.87c.11,6.77,4.44,9.56,9.45,9.56,3.58,0,5.75-.63,7.62-1.42l.85,3.58c-1.76.8-4.78,1.71-9.16,1.71-8.48,0-13.54-5.58-13.54-13.88s4.89-14.85,12.92-14.85c8.99,0,11.38,7.91,11.38,12.97,0,1.02-.11,1.82-.17,2.33h-19.35ZM261.16,168.29c.06-3.19-1.31-8.14-6.94-8.14-5.06,0-7.28,4.67-7.68,8.14h14.62Z"/><path class="cls-1" d="M272.19,165.79c0-3.24-.06-6.03-.23-8.59h4.38l.17,5.41h.23c1.25-3.7,4.27-6.03,7.62-6.03.57,0,.97.06,1.42.17v4.72c-.51-.11-1.02-.17-1.71-.17-3.53,0-6.03,2.67-6.71,6.43-.11.68-.23,1.48-.23,2.33v14.68h-4.95v-18.95Z"/><path class="cls-1" d="M296.6,149.45c.06,1.71-1.19,3.07-3.19,3.07-1.76,0-3.02-1.37-3.02-3.07s1.31-3.13,3.13-3.13,3.07,1.37,3.07,3.13ZM291.02,184.73v-27.54h5.01v27.54h-5.01Z"/><path class="cls-1" d="M319.59,184.73l-.4-3.47h-.17c-1.54,2.16-4.5,4.1-8.42,4.1-5.58,0-8.42-3.93-8.42-7.91,0-6.66,5.92-10.3,16.56-10.24v-.57c0-2.28-.63-6.37-6.26-6.37-2.56,0-5.23.8-7.17,2.05l-1.14-3.3c2.28-1.48,5.58-2.45,9.05-2.45,8.42,0,10.47,5.75,10.47,11.27v10.3c0,2.39.11,4.72.46,6.6h-4.55ZM318.85,170.68c-5.46-.11-11.66.85-11.66,6.2,0,3.24,2.16,4.78,4.72,4.78,3.58,0,5.86-2.28,6.66-4.61.17-.51.28-1.08.28-1.59v-4.78Z"/><path class="cls-1" d="M331.76,144.33h5.01v40.4h-5.01v-40.4Z"/><path class="cls-1" d="M344.5,179.61c1.48.97,4.1,1.99,6.6,1.99,3.64,0,5.35-1.82,5.35-4.1,0-2.39-1.42-3.7-5.12-5.06-4.95-1.76-7.28-4.5-7.28-7.8,0-4.44,3.58-8.08,9.5-8.08,2.79,0,5.24.8,6.77,1.71l-1.25,3.64c-1.08-.68-3.07-1.59-5.63-1.59-2.96,0-4.61,1.71-4.61,3.76,0,2.28,1.65,3.3,5.24,4.67,4.78,1.82,7.23,4.21,7.23,8.31,0,4.84-3.76,8.25-10.3,8.25-3.02,0-5.8-.74-7.74-1.88l1.25-3.81Z"/><path class="cls-5" d="M96.57,107.78c-9.51-2.34-15.47-6.28-17.79-7.93-4.38-3.13-7.19-5.13-8.72-9.12-2.21-5.76-.01-11.11.36-11.99,2.97-6.94,10.81-11.46,17.92-10.47,5.88.82,9.41,5.16,12.9,9.43,3.45,4.24,5,8.56,8.1,17.21,3.98,11.11,3,12.7,2.55,13.26-2.26,2.82-8.38,1.32-15.33-.39Z"/><path class="cls-4" d="M17.67,24.85c1.51.42-.04-.12,15.99,13.49,18.98,16.11,54.69,48.45,56.53,50.93,3.52,4.77-79.19-66.28-72.52-64.42Z"/><path class="cls-5" d="M50.1,111.67c6.52-6.03,9.52-11.78,10.63-14.11,2.11-4.4,3.45-7.23,2.91-11.07-.78-5.54-4.87-8.82-5.55-9.35-5.41-4.2-13.61-4.35-18.82-.44-4.31,3.23-5.21,8.23-6.1,13.15-.88,4.88-.21,8.99,1.12,17.21,1.72,10.57,3.2,11.4,3.8,11.65,3.03,1.25,7.23-2.63,12-7.04Z"/><path class="cls-4" d="M49.2,93.64c-.53-1.38,1.5-9.89,2.56-17.28,1.47-10.26,1.33-17.87,2.19-18.64,2.75-2.43-3.46,39.32-4.75,35.92Z"/><path class="cls-5" d="M108.49,49.84c-5.5,6.98-11,10.42-13.23,11.71-4.23,2.44-6.93,4.01-10.81,3.77-5.59-.34-9.18-4.16-9.76-4.8-4.61-5.06-5.4-13.23-1.91-18.73,2.89-4.55,7.79-5.84,12.63-7.11,4.79-1.26,8.95-.92,17.25-.23,10.67.88,11.62,2.29,11.91,2.87,1.48,2.92-2.06,7.41-6.08,12.51Z"/><path class="cls-4" d="M90.45,50.36c-1.42-.42-9.74,2.27-17.02,3.91-10.11,2.27-17.71,2.72-18.41,3.65-2.21,2.93,38.93-6.53,35.43-7.56Z"/><path class="cls-5" d="M25.32,88.75c6.52-6.03,9.52-11.78,10.63-14.11,2.11-4.4,3.45-7.23,2.91-11.07-.78-5.54-4.87-8.82-5.55-9.35-5.41-4.2-13.61-4.35-18.82-.44-4.31,3.23-5.21,8.23-6.1,13.15-.88,4.88-.21,8.99,1.12,17.21,1.72,10.57,3.2,11.4,3.8,11.65,3.03,1.25,7.23-2.63,12-7.04Z"/><path class="cls-4" d="M24.46,71.65c-.53-1.38,1.5-9.89,2.56-17.28,1.47-10.26,1.33-17.87,2.19-18.64,2.75-2.43-3.46,39.32-4.75,35.92Z"/><path class="cls-5" d="M79.59,25.22c-5.5,6.98-11,10.42-13.23,11.71-4.23,2.44-6.93,4.01-10.81,3.77-5.59-.34-9.18-4.16-9.76-4.8-4.61-5.06-5.4-13.23-1.91-18.73,2.89-4.55,7.79-5.84,12.63-7.11,4.79-1.26,8.95-.92,17.25-.23,10.67.88,11.62,2.29,11.91,2.87,1.48,2.92-2.06,7.41-6.08,12.51Z"/><path class="cls-4" d="M61.55,25.74c-1.42-.42-9.74,2.27-17.02,3.91-10.11,2.27-17.71,2.72-18.41,3.65-2.21,2.93,38.93-6.53,35.43-7.56Z"/></svg>